<?xml version="1.0" encoding="UTF-8"?><svg id="Layer_2" xmlns="http://www.w3.org/2000/svg" viewBox="0 0 1538.57 1549.62"><defs><style>.cls-1{fill:#fff;}.cls-2{fill:#7704ba;}</style></defs><g id="Layer_1-2"><g><path class="cls-2" d="M760.13,21.88C344.17,21.88,6.97,360,6.97,777.09s337.2,755.23,753.16,755.23,753.17-338.12,753.17-755.23S1176.09,21.88,760.13,21.88Zm7.47,217.8c153.13,.46,276.89,126.61,274.85,280.15-1.98,150.46-125.58,273.34-276.25,274.73-152.5,1.41-280.19-124.31-280.45-276.13-.28-156.59,123.74-279.24,281.85-278.76Zm342.48,990.25c-81.69,48.26-172.46,62.24-264.78,69.47-19.39,1.52-38.92,1.06-58.44,.67-8.2-.17-16.39-.33-24.57-.33-9.6,.43-19.17,.7-28.74,.82-31.09,.37-61.94-1-92.48-4.26-5.49-.57-10.96-1.22-16.43-1.95-2.73-.35-5.45-.72-8.18-1.11-2.73-.37-5.45-.78-8.18-1.2-10.88-1.67-21.75-3.6-32.56-5.78-4.49-.91-8.97-1.85-13.44-2.87-3.6-.8-7.19-1.63-10.77-2.5-5.36-1.28-10.7-2.63-16.02-4.06-6.58-1.76-13.15-3.63-19.69-5.62-3.24-.96-6.49-1.97-9.72-3-14.07-4.47-28.07-9.46-41.96-14.94-100.08-39.58-128.23-87.14-111.32-193.47,17.52-110.19,71.21-199.98,160.54-268.56,29.03-22.29,53.99-24.21,85.4-5.06,109,66.41,219.84,66.8,328.95,.74,33.8-20.47,59.92-17.84,89.92,6.54,100.08,81.3,155.59,183.76,160.99,314.1,2.37,57.31-21.97,94.89-68.54,122.41Z"/><path class="cls-1" d="M1538.57,0V1549.62H0V897.46c8.71,27.35,18.47,54.42,25.98,82.1,77.85,287.21,330.08,502.8,623.84,548.39,378.17,58.68,797.3-192.56,860.4-641.95C1577.32,407.86,1229,76.81,869.57,23.23,460.75-37.73,80.45,249.91,13.2,630.7c-1.45,8.16-8.68,15.31-13.2,22.92V0H1538.57Z"/><path class="cls-1" d="M762.33,1299.74c-102.53,4.57-202.57-8.69-298.19-46.51-100.08-39.59-128.23-87.13-111.31-193.48,17.52-110.18,71.22-199.98,160.54-268.56,29.03-22.28,53.99-24.21,85.4-5.07,108.99,66.43,219.83,66.82,328.94,.75,33.8-20.47,59.93-17.83,89.93,6.54,100.08,81.31,155.58,183.75,160.98,314.11,2.37,57.3-21.96,94.88-68.55,122.4-81.68,48.26-172.46,62.23-264.77,69.46-27.51,2.16-55.34,.33-82.97,.35Z"/><path class="cls-1" d="M767.61,239.68c153.12,.47,276.88,126.61,274.85,280.15-1.99,150.45-125.58,273.35-276.27,274.74-152.49,1.4-280.18-124.31-280.44-276.13-.27-156.6,123.73-279.24,281.86-278.76Z"/></g></g></svg>