<?xml version="1.0" encoding="UTF-8"?><svg id="Layer_2" xmlns="http://www.w3.org/2000/svg" viewBox="0 0 1302.48 1301.84"><defs><style>.cls-1{fill:#7704ba;}</style></defs><g id="Layer_1-2"><path class="cls-1" d="M1274.49,1171.87c-16.58-19.76-36.06-37.14-54.4-55.48-57.18-57.41-114.48-114.7-174.95-175.29,179.66-319.46,140.59-615.76-98.29-812.12C732.72-47.09,412.46-42.38,200.49,139.95-10.46,321.43-62.76,638.79,81.02,877c73.31,121.46,177.56,206.63,312.37,253.54,196.64,68.42,377.04,21.63,556.14-90.51,49.06,53.26,93.58,102.61,139.29,150.82,27.99,29.58,56.16,59.34,87.05,85.69,38.56,32.88,82.56,32.99,108.91,4.6,26.46-28.45,23.45-69.1-10.28-109.25Zm-684.35-159.67c-243.94,3.75-442.46-187.04-445.58-428.2-3.07-236.67,200.56-441.49,437.52-440.07,236.62,1.36,429.4,194.6,430.99,431.95,1.7,241.73-183.35,432.63-422.92,436.32Z"/></g></svg>