<?xml version="1.0" encoding="UTF-8"?><svg id="Layer_1" xmlns="http://www.w3.org/2000/svg" viewBox="0 0 32 32"><defs><style>.cls-1{fill:#fff;}.cls-2{fill:#7704ba;}</style></defs><path class="cls-2" d="M16.06,30.7c-4.17,0-7.71-1.43-10.62-4.29-2.9-2.85-4.36-6.33-4.36-10.42s1.46-7.44,4.36-10.35S11.89,1.3,16.06,1.3s7.58,1.45,10.49,4.35c2.9,2.9,4.36,6.35,4.36,10.35s-1.46,7.56-4.36,10.42c-2.9,2.86-6.4,4.29-10.49,4.29Z"/><g><path class="cls-1" d="M16.5,5.28c2.97,.15,5.55,1.7,7.14,4.8,.46,.89,.71,1.86,.8,2.86,.15,1.7-.13,3.33-.74,4.92-.66,1.74-1.66,3.29-2.86,4.7-1.32,1.55-2.83,2.91-4.52,4.06-.21,.14-.42,.14-.63,0-2.19-1.5-4.09-3.31-5.62-5.48-1.07-1.51-1.87-3.15-2.28-4.96-.23-.99-.34-2.01-.24-3.02,.32-3.28,1.98-5.65,4.94-7.1,1.1-.54,2.29-.77,4-.77Zm-.51,20.36s.03-.02,.04-.03c.09-.06,.17-.11,.26-.18,1.93-1.43,3.63-3.08,4.99-5.08,1.16-1.7,1.96-3.54,2.17-5.61,.09-.94,.06-1.87-.17-2.78-.48-1.87-1.52-3.35-3.13-4.43-1.06-.71-2.23-1.11-3.5-1.22-.88-.07-1.75,0-2.61,.24-1.16,.32-2.18,.89-3.07,1.7-1.27,1.17-2.05,2.61-2.33,4.31-.2,1.19-.09,2.38,.19,3.55,.46,1.92,1.4,3.61,2.6,5.16,.85,1.1,1.81,2.1,2.87,3,.55,.47,1.13,.91,1.69,1.37Z"/><path class="cls-1" d="M19.72,13.17c.02,2.05-1.65,3.74-3.69,3.75-2.05,.01-3.73-1.65-3.74-3.72-.01-2.04,1.64-3.71,3.68-3.73,2.06-.02,3.73,1.64,3.75,3.7Zm-3.68-2.58c-1.41-.03-2.62,1.13-2.64,2.56-.02,1.4,1.05,2.62,2.57,2.64,1.42,.02,2.6-1.06,2.63-2.56,.03-1.47-1.12-2.61-2.56-2.64Z"/></g></svg>