<?xml version="1.0" encoding="UTF-8"?><svg id="Layer_1" xmlns="http://www.w3.org/2000/svg" viewBox="0 0 32 32"><defs><style>.cls-1{fill:#fff;}.cls-2{fill:#7704ba;}</style></defs><path class="cls-2" d="M16.07,31.56c-4.41,0-8.16-1.51-11.23-4.54C1.77,24,.22,20.31,.22,15.99S1.77,8.12,4.84,5.05,11.65,.44,16.07,.44s8.02,1.53,11.09,4.6c3.07,3.07,4.61,6.72,4.61,10.95s-1.54,8-4.61,11.02c-3.07,3.03-6.77,4.54-11.09,4.54Z"/><g><path class="cls-1" d="M16.53,4.66c3.14,.16,5.87,1.8,7.56,5.08,.49,.95,.75,1.97,.85,3.03,.16,1.8-.14,3.52-.78,5.2-.7,1.84-1.75,3.48-3.03,4.97-1.4,1.64-3,3.08-4.78,4.29-.22,.15-.44,.15-.66,0-2.31-1.59-4.32-3.5-5.95-5.8-1.13-1.6-1.97-3.33-2.41-5.25-.24-1.05-.36-2.13-.26-3.2,.34-3.47,2.09-5.98,5.22-7.51,1.17-.57,2.42-.81,4.24-.82Zm-.54,21.54s.03-.02,.04-.03c.09-.06,.18-.12,.27-.19,2.04-1.51,3.84-3.26,5.27-5.37,1.22-1.8,2.07-3.75,2.29-5.94,.1-.99,.07-1.97-.18-2.94-.51-1.98-1.61-3.55-3.31-4.68-1.12-.75-2.36-1.18-3.71-1.29-.94-.08-1.85,0-2.76,.25-1.23,.34-2.31,.94-3.25,1.8-1.34,1.24-2.17,2.76-2.47,4.56-.21,1.26-.1,2.52,.2,3.76,.49,2.03,1.48,3.82,2.75,5.46,.9,1.16,1.91,2.22,3.04,3.17,.59,.5,1.19,.97,1.79,1.45Z"/><path class="cls-1" d="M19.94,13c.02,2.16-1.75,3.95-3.91,3.96-2.17,.01-3.94-1.75-3.96-3.93-.01-2.16,1.73-3.93,3.9-3.95,2.18-.02,3.95,1.73,3.97,3.92Zm-3.89-2.73c-1.49-.03-2.77,1.19-2.79,2.7-.02,1.49,1.12,2.77,2.71,2.8,1.51,.02,2.75-1.12,2.79-2.7,.03-1.55-1.19-2.76-2.71-2.8Z"/></g></svg>