<?xml version="1.0" encoding="UTF-8"?><svg id="Layer_1" xmlns="http://www.w3.org/2000/svg" viewBox="0 0 32 32"><defs><style>.cls-1{fill:#fff;}.cls-2{fill:#d4b4e6;}</style></defs><path class="cls-1" d="M5.92,14.21c-.95,0-1.69-.26-2.22-.77-.53-.52-.79-1.21-.79-2.09s.26-1.53,.78-2.07c.52-.53,1.24-.8,2.17-.8,1.17,0,2.01,.39,2.53,1.18l-1.38,1.15c-.22-.4-.56-.6-1.01-.6-.31,0-.57,.1-.77,.3-.2,.2-.3,.47-.3,.8,0,.36,.1,.64,.3,.85,.2,.21,.47,.31,.8,.31,.46,0,.81-.2,1.04-.59l1.35,1.15c-.55,.78-1.38,1.17-2.5,1.17Z"/><path class="cls-1" d="M8.95,14.09V6.48h2v7.61h-2Z"/><path class="cls-1" d="M16.91,13.46c-.55,.52-1.3,.77-2.23,.77s-1.67-.26-2.23-.77c-.55-.52-.83-1.22-.83-2.11s.28-1.59,.83-2.11c.55-.52,1.3-.78,2.23-.78s1.67,.26,2.23,.78c.55,.52,.83,1.22,.83,2.11s-.28,1.6-.83,2.11Zm-2.96-1.27c.18,.21,.42,.31,.73,.31s.55-.1,.73-.31c.18-.21,.27-.49,.27-.84s-.09-.63-.27-.84c-.18-.21-.42-.31-.73-.31s-.55,.1-.73,.31c-.18,.21-.27,.49-.27,.84s.09,.63,.27,.84Z"/><path class="cls-1" d="M20.47,14.25c-.89,0-1.67-.14-2.37-.43l.58-1.43c.21,.15,.47,.26,.79,.34,.32,.08,.62,.12,.88,.12,.42,0,.63-.1,.63-.31,0-.09-.06-.16-.17-.21-.11-.06-.38-.13-.81-.23-.6-.14-1.06-.34-1.38-.61-.32-.27-.48-.66-.48-1.17,0-.62,.2-1.08,.61-1.39s.98-.46,1.72-.46,1.5,.15,2.32,.44l-.64,1.46c-.22-.12-.5-.22-.83-.31-.34-.09-.62-.13-.85-.13-.27,0-.4,.08-.4,.25,0,.09,.05,.17,.16,.22,.11,.05,.37,.13,.78,.24,.65,.17,1.14,.38,1.46,.63,.32,.26,.48,.61,.48,1.07,0,1.28-.83,1.92-2.5,1.92Z"/><path class="cls-1" d="M29.09,11.35c0,.26,0,.44,0,.54h-3.73c.14,.54,.52,.81,1.14,.81,.56,0,1-.21,1.31-.62l1.21,.99c-.54,.77-1.44,1.16-2.71,1.16-.93,0-1.64-.26-2.16-.77-.51-.52-.77-1.22-.77-2.1s.27-1.56,.81-2.09c.54-.53,1.24-.79,2.08-.79,.91,0,1.61,.26,2.09,.79,.48,.53,.72,1.23,.72,2.1Zm-2.82-1.38c-.51,0-.83,.28-.94,.85h1.85c0-.21-.08-.41-.23-.58-.15-.18-.37-.26-.67-.26Z"/><path class="cls-1" d="M18.64,23.73c-.63,0-1.1-.19-1.4-.56v.42h-1.92v-7.61h1.97v2.47c.34-.33,.81-.5,1.42-.5,.75,0,1.35,.26,1.8,.79,.45,.53,.68,1.23,.68,2.11s-.23,1.57-.69,2.09c-.46,.52-1.08,.78-1.86,.78Zm-.56-1.69c.33,0,.59-.11,.77-.32,.18-.21,.27-.51,.27-.88,0-.39-.09-.69-.27-.9-.18-.21-.43-.31-.73-.31-.2,0-.38,.04-.54,.13-.16,.09-.27,.21-.34,.37v1.37c.16,.35,.44,.53,.84,.53Z"/><path class="cls-1" d="M25.16,18.1h2.14l-2.15,5.42c-.17,.43-.36,.78-.57,1.06-.21,.28-.43,.48-.68,.61-.25,.13-.48,.22-.7,.26-.22,.04-.48,.06-.77,.06-.39,0-.72-.04-.98-.13v-1.59c.28,.1,.53,.15,.74,.15,.51,0,.87-.18,1.09-.53l-2.43-5.32h2.25l1.05,2.87,1.01-2.87Z"/><path class="cls-2" d="M27.81,23.75c-.31,0-.57-.1-.78-.31-.21-.21-.32-.46-.32-.76s.11-.55,.32-.76,.47-.32,.78-.32,.56,.11,.77,.32c.21,.21,.32,.47,.32,.76s-.11,.55-.32,.76c-.21,.21-.47,.31-.77,.31Z"/></svg>