<svg width="207" height="206" viewBox="0 0 207 206" fill="none" xmlns="http://www.w3.org/2000/svg">
<path d="M190.624 66.2007L140.021 15.5982C129.409 4.98616 114.776 -0.710811 99.8074 0.0711263L43.9543 2.75206C21.6132 3.7574 3.85203 21.5186 2.73498 43.7479L0.0540484 99.6006C-0.616184 114.569 4.96909 129.203 15.5811 139.815L66.1836 190.417C86.9613 211.194 120.696 211.194 141.585 190.417L190.624 141.378C211.513 120.713 211.513 86.9779 190.624 66.2007ZM75.2318 107.308C57.4706 107.308 43.0606 92.8983 43.0606 75.1371C43.0606 57.376 57.4706 42.966 75.2318 42.966C92.9934 42.966 107.403 57.376 107.403 75.1371C107.403 92.8983 92.9934 107.308 75.2318 107.308Z" fill="#292D32"/>
</svg>
